<mxfile host="app.diagrams.net" agent="Mozilla/5.0 (X11; Ubuntu; Linux x86_64; rv:133.0) Gecko/20100101 Firefox/133.0" version="26.0.3">
  <diagram name="Page-1" id="yJ2y4z0kJPXkwyk4AjeP">
    <mxGraphModel dx="679" dy="758" grid="1" gridSize="10" guides="1" tooltips="1" connect="1" arrows="1" fold="1" page="1" pageScale="1" pageWidth="850" pageHeight="1100" math="0" shadow="0">
      <root>
        <mxCell id="0" />
        <mxCell id="1" parent="0" />
        <mxCell id="BZQY6vrnC02EhMQbbsKv-1" value="&lt;div&gt;Chal&lt;/div&gt;&lt;div&gt;&lt;br&gt;&lt;/div&gt;&lt;div&gt;(pk, sk) &amp;lt;- G()&lt;br&gt;&lt;/div&gt;" style="rounded=0;whiteSpace=wrap;html=1;fillColor=#FFE599;" vertex="1" parent="1">
          <mxGeometry x="80" y="120" width="120" height="440" as="geometry" />
        </mxCell>
        <mxCell id="BZQY6vrnC02EhMQbbsKv-2" value="Adv. A" style="rounded=0;whiteSpace=wrap;html=1;fillColor=#FFE599;" vertex="1" parent="1">
          <mxGeometry x="560" y="120" width="120" height="440" as="geometry" />
        </mxCell>
        <mxCell id="BZQY6vrnC02EhMQbbsKv-3" value="" style="endArrow=classic;html=1;rounded=0;exitX=1.025;exitY=0.108;exitDx=0;exitDy=0;exitPerimeter=0;entryX=-0.008;entryY=0.111;entryDx=0;entryDy=0;entryPerimeter=0;" edge="1" parent="1" source="BZQY6vrnC02EhMQbbsKv-1" target="BZQY6vrnC02EhMQbbsKv-2">
          <mxGeometry width="50" height="50" relative="1" as="geometry">
            <mxPoint x="330" y="360" as="sourcePoint" />
            <mxPoint x="380" y="310" as="targetPoint" />
          </mxGeometry>
        </mxCell>
        <mxCell id="BZQY6vrnC02EhMQbbsKv-4" value="pk" style="text;html=1;align=center;verticalAlign=middle;whiteSpace=wrap;rounded=0;" vertex="1" parent="1">
          <mxGeometry x="350" y="130" width="60" height="30" as="geometry" />
        </mxCell>
        <mxCell id="BZQY6vrnC02EhMQbbsKv-5" value="" style="endArrow=classic;html=1;rounded=0;exitX=0.033;exitY=0.275;exitDx=0;exitDy=0;exitPerimeter=0;entryX=0.975;entryY=0.277;entryDx=0;entryDy=0;entryPerimeter=0;" edge="1" parent="1" source="BZQY6vrnC02EhMQbbsKv-2" target="BZQY6vrnC02EhMQbbsKv-1">
          <mxGeometry width="50" height="50" relative="1" as="geometry">
            <mxPoint x="330" y="360" as="sourcePoint" />
            <mxPoint x="380" y="310" as="targetPoint" />
          </mxGeometry>
        </mxCell>
        <mxCell id="BZQY6vrnC02EhMQbbsKv-6" value="&lt;b&gt;CCA phase 1: &lt;/b&gt;ci in C" style="text;html=1;align=center;verticalAlign=middle;whiteSpace=wrap;rounded=0;" vertex="1" parent="1">
          <mxGeometry x="315" y="210" width="130" height="30" as="geometry" />
        </mxCell>
        <mxCell id="BZQY6vrnC02EhMQbbsKv-7" value="" style="endArrow=classic;html=1;rounded=0;exitX=1.017;exitY=0.439;exitDx=0;exitDy=0;exitPerimeter=0;" edge="1" parent="1" source="BZQY6vrnC02EhMQbbsKv-1">
          <mxGeometry width="50" height="50" relative="1" as="geometry">
            <mxPoint x="330" y="360" as="sourcePoint" />
            <mxPoint x="562" y="313" as="targetPoint" />
          </mxGeometry>
        </mxCell>
        <mxCell id="BZQY6vrnC02EhMQbbsKv-8" value="mi &amp;lt;- D(k, ci)" style="text;html=1;align=center;verticalAlign=middle;whiteSpace=wrap;rounded=0;" vertex="1" parent="1">
          <mxGeometry x="320" y="280" width="110" height="30" as="geometry" />
        </mxCell>
        <mxCell id="BZQY6vrnC02EhMQbbsKv-9" value="" style="endArrow=classic;html=1;rounded=0;entryX=1;entryY=0.58;entryDx=0;entryDy=0;entryPerimeter=0;" edge="1" parent="1" target="BZQY6vrnC02EhMQbbsKv-1">
          <mxGeometry width="50" height="50" relative="1" as="geometry">
            <mxPoint x="560" y="375" as="sourcePoint" />
            <mxPoint x="380" y="310" as="targetPoint" />
          </mxGeometry>
        </mxCell>
        <mxCell id="BZQY6vrnC02EhMQbbsKv-10" value="&lt;b&gt;challenge: &lt;/b&gt;m0, m1 in M: |m0| = |m1|" style="text;html=1;align=center;verticalAlign=middle;whiteSpace=wrap;rounded=0;" vertex="1" parent="1">
          <mxGeometry x="280" y="340" width="200" height="30" as="geometry" />
        </mxCell>
        <mxCell id="BZQY6vrnC02EhMQbbsKv-11" value="" style="endArrow=classic;html=1;rounded=0;exitX=1.017;exitY=0.695;exitDx=0;exitDy=0;exitPerimeter=0;entryX=0.025;entryY=0.693;entryDx=0;entryDy=0;entryPerimeter=0;" edge="1" parent="1" source="BZQY6vrnC02EhMQbbsKv-1" target="BZQY6vrnC02EhMQbbsKv-2">
          <mxGeometry width="50" height="50" relative="1" as="geometry">
            <mxPoint x="330" y="360" as="sourcePoint" />
            <mxPoint x="380" y="310" as="targetPoint" />
          </mxGeometry>
        </mxCell>
        <mxCell id="BZQY6vrnC02EhMQbbsKv-12" value="c &amp;lt;- E(pk, mb)" style="text;html=1;align=center;verticalAlign=middle;whiteSpace=wrap;rounded=0;" vertex="1" parent="1">
          <mxGeometry x="325" y="400" width="110" height="30" as="geometry" />
        </mxCell>
        <mxCell id="BZQY6vrnC02EhMQbbsKv-13" value="" style="endArrow=classic;html=1;rounded=0;" edge="1" parent="1">
          <mxGeometry width="50" height="50" relative="1" as="geometry">
            <mxPoint x="560" y="490" as="sourcePoint" />
            <mxPoint x="203" y="490" as="targetPoint" />
          </mxGeometry>
        </mxCell>
        <mxCell id="BZQY6vrnC02EhMQbbsKv-14" value="&lt;b&gt;CCA phase 2: &lt;/b&gt;ci in C, ci different from c" style="text;html=1;align=center;verticalAlign=middle;whiteSpace=wrap;rounded=0;" vertex="1" parent="1">
          <mxGeometry x="280" y="460" width="230" height="30" as="geometry" />
        </mxCell>
        <mxCell id="BZQY6vrnC02EhMQbbsKv-15" value="" style="endArrow=classic;html=1;rounded=0;exitX=1.008;exitY=0.948;exitDx=0;exitDy=0;exitPerimeter=0;entryX=-0.008;entryY=0.952;entryDx=0;entryDy=0;entryPerimeter=0;" edge="1" parent="1" source="BZQY6vrnC02EhMQbbsKv-1" target="BZQY6vrnC02EhMQbbsKv-2">
          <mxGeometry width="50" height="50" relative="1" as="geometry">
            <mxPoint x="330" y="360" as="sourcePoint" />
            <mxPoint x="380" y="310" as="targetPoint" />
          </mxGeometry>
        </mxCell>
        <mxCell id="BZQY6vrnC02EhMQbbsKv-16" value="mi &amp;lt;- D(k, ci)" style="text;html=1;align=center;verticalAlign=middle;whiteSpace=wrap;rounded=0;" vertex="1" parent="1">
          <mxGeometry x="325" y="510" width="110" height="30" as="geometry" />
        </mxCell>
        <mxCell id="BZQY6vrnC02EhMQbbsKv-17" value="" style="endArrow=classic;html=1;rounded=0;entryX=0.017;entryY=0.139;entryDx=0;entryDy=0;entryPerimeter=0;" edge="1" parent="1" target="BZQY6vrnC02EhMQbbsKv-1">
          <mxGeometry width="50" height="50" relative="1" as="geometry">
            <mxPoint x="10" y="180" as="sourcePoint" />
            <mxPoint x="380" y="310" as="targetPoint" />
          </mxGeometry>
        </mxCell>
        <mxCell id="BZQY6vrnC02EhMQbbsKv-18" value="b" style="text;html=1;align=center;verticalAlign=middle;whiteSpace=wrap;rounded=0;" vertex="1" parent="1">
          <mxGeometry x="10" y="150" width="60" height="30" as="geometry" />
        </mxCell>
        <mxCell id="BZQY6vrnC02EhMQbbsKv-19" value="" style="endArrow=classic;html=1;rounded=0;exitX=1.025;exitY=0.909;exitDx=0;exitDy=0;exitPerimeter=0;" edge="1" parent="1" source="BZQY6vrnC02EhMQbbsKv-2">
          <mxGeometry width="50" height="50" relative="1" as="geometry">
            <mxPoint x="710" y="360" as="sourcePoint" />
            <mxPoint x="770" y="520" as="targetPoint" />
          </mxGeometry>
        </mxCell>
        <mxCell id="BZQY6vrnC02EhMQbbsKv-21" value="b&#39; in {0,1}" style="text;html=1;align=center;verticalAlign=middle;whiteSpace=wrap;rounded=0;" vertex="1" parent="1">
          <mxGeometry x="690" y="480" width="60" height="30" as="geometry" />
        </mxCell>
      </root>
    </mxGraphModel>
  </diagram>
</mxfile>
